<svg width="14" height="16" viewBox="0 0 14 16" fill="none" xmlns="http://www.w3.org/2000/svg">
<path d="M12.4545 6.72727C12.4545 11.1818 6.72727 15 6.72727 15C6.72727 15 1 11.1818 1 6.72727C1 5.20831 1.60341 3.75155 2.67748 2.67748C3.75155 1.60341 5.20831 1 6.72727 1C8.24624 1 9.70299 1.60341 10.7771 2.67748C11.8511 3.75155 12.4545 5.20831 12.4545 6.72727Z" stroke="#475569" stroke-width="1.4" stroke-linecap="round" stroke-linejoin="round"/>
<path d="M6.72727 8.63642C7.78164 8.63642 8.63637 7.78169 8.63637 6.72733C8.63637 5.67297 7.78164 4.81824 6.72727 4.81824C5.67291 4.81824 4.81818 5.67297 4.81818 6.72733C4.81818 7.78169 5.67291 8.63642 6.72727 8.63642Z" stroke="#475569" stroke-width="1.4" stroke-linecap="round" stroke-linejoin="round"/>
</svg>
