<svg width="17" height="16" viewBox="0 0 17 16" fill="none" xmlns="http://www.w3.org/2000/svg">
<path d="M6.67333 3.46524C7.33257 1.82175 7.6622 1 8.22902 1C8.79584 1 9.12547 1.82175 9.78471 3.46524L9.81541 3.54177C10.1878 4.47027 10.3741 4.93451 10.7536 5.21669C11.1331 5.49887 11.6313 5.54348 12.6278 5.63272L12.8079 5.64885C14.4387 5.7949 15.254 5.86793 15.4285 6.38669C15.603 6.90546 14.9975 7.45637 13.7864 8.5582L13.3822 8.92593C12.7691 9.48369 12.4626 9.76257 12.3197 10.1281C12.2931 10.1963 12.2709 10.2661 12.2534 10.3372C12.1595 10.7183 12.2492 11.1228 12.4288 11.932L12.4846 12.1838C12.8146 13.6709 12.9795 14.4144 12.6915 14.7351C12.5839 14.855 12.444 14.9413 12.2886 14.9837C11.8727 15.0971 11.2823 14.616 10.1015 13.6538C9.32611 13.022 8.93842 12.7061 8.49331 12.635C8.31822 12.6071 8.13981 12.6071 7.96473 12.635C7.51962 12.7061 7.13193 13.022 6.35655 13.6538C5.17572 14.616 4.58531 15.0971 4.16945 14.9837C4.01405 14.9413 3.87416 14.855 3.76653 14.7351C3.4785 14.4144 3.64347 13.6709 3.9734 12.1838L4.02928 11.932C4.20881 11.1228 4.29857 10.7183 4.20466 10.3372C4.18714 10.2661 4.16498 10.1963 4.13833 10.1281C3.99546 9.76257 3.68893 9.48369 3.07586 8.92593L2.67166 8.5582C1.46058 7.45637 0.855046 6.90546 1.02952 6.38669C1.20399 5.86793 2.01937 5.7949 3.65014 5.64885L3.83028 5.63272C4.8267 5.54348 5.32491 5.49887 5.70444 5.21669C6.08397 4.93451 6.27019 4.47027 6.64263 3.54177L6.67333 3.46524Z" stroke="#475569" stroke-width="1.6"/>
</svg>
