<svg width="14" height="14" viewBox="0 0 14 14" fill="none" xmlns="http://www.w3.org/2000/svg">
<g clip-path="url(#clip0_6_640)">
<path d="M8.77917 2.91659C9.34893 3.02775 9.87256 3.3064 10.283 3.71688C10.6935 4.12736 10.9722 4.65099 11.0833 5.22075L8.77917 2.91659ZM8.77917 0.583252C9.96291 0.714756 11.0668 1.24485 11.9095 2.08651C12.7522 2.92816 13.2837 4.03134 13.4167 5.21492L8.77917 0.583252ZM12.8333 9.86992V11.6199C12.834 11.7824 12.8007 11.9432 12.7356 12.092C12.6705 12.2409 12.5751 12.3745 12.4554 12.4843C12.3357 12.5942 12.1943 12.6778 12.0404 12.7298C11.8865 12.7819 11.7235 12.8012 11.5617 12.7866C9.76665 12.5915 8.04242 11.9782 6.5275 10.9958C5.11807 10.1001 3.92311 8.90519 3.0275 7.49575C2.04166 5.97395 1.42814 4.24133 1.23667 2.43825C1.22209 2.27694 1.24126 2.11436 1.29296 1.96087C1.34466 1.80737 1.42775 1.66632 1.53695 1.5467C1.64615 1.42707 1.77905 1.3315 1.92721 1.26606C2.07537 1.20061 2.23553 1.16674 2.3975 1.16659H4.1475C4.4306 1.1638 4.70505 1.26405 4.9197 1.44865C5.13434 1.63324 5.27455 1.8896 5.31417 2.16992C5.38803 2.72996 5.52501 3.27984 5.7225 3.80909C5.80099 4.01787 5.81797 4.24479 5.77145 4.46293C5.72492 4.68108 5.61684 4.88132 5.46 5.03992L4.71917 5.78075C5.54958 7.24115 6.75877 8.45034 8.21917 9.28075L8.96 8.53992C9.1186 8.38308 9.31884 8.275 9.53699 8.22847C9.75513 8.18195 9.98205 8.19893 10.1908 8.27742C10.7201 8.47491 11.27 8.61189 11.83 8.68575C12.1134 8.72573 12.3722 8.86846 12.5571 9.08679C12.7421 9.30513 12.8404 9.58384 12.8333 9.86992Z" stroke="#65748A" stroke-linecap="round" stroke-linejoin="round"/>
</g>
<defs>
<clipPath id="clip0_6_640">
<rect width="14" height="14" fill="white"/>
</clipPath>
</defs>
</svg>
