<svg width="56" height="51" viewBox="0 0 56 51" fill="none" xmlns="http://www.w3.org/2000/svg">
<path fill-rule="evenodd" clip-rule="evenodd" d="M4.99842 16.3806C6.5056 11.8099 7.37881 6.99279 8.19054 2.31832C8.36192 1.31135 7.70187 0.339627 6.71564 0.222809C5.73195 0.0336287 4.79383 0.716639 4.6257 1.65127C3.84291 6.18209 3.01313 10.8553 1.56416 15.2112C1.25065 16.1393 1.76349 17.1775 2.71102 17.51C3.65784 17.8425 4.68418 17.3086 4.99842 16.3806Z" fill="#EB5757"/>
<path fill-rule="evenodd" clip-rule="evenodd" d="M22.7849 31.2397C30.7225 24.1315 37.7237 16.039 45.8588 9.08463C46.6171 8.46644 46.7082 7.31091 46.0601 6.55701C45.4113 5.80307 44.2688 5.67951 43.5072 6.37003C35.3498 13.3234 28.3268 21.4149 20.3668 28.5221C19.6226 29.2134 19.5604 30.3699 20.2281 31.1247C20.8982 31.8071 22.0407 31.931 22.7849 31.2397Z" fill="#EB5757"/>
<path fill-rule="evenodd" clip-rule="evenodd" d="M51.3996 46.5155C47.0385 46.5369 42.6774 46.5578 38.3155 46.5791C37.3188 46.5343 36.5102 47.3681 36.5131 48.3829C36.5167 49.3977 37.3327 50.1588 38.3301 50.2036C42.6985 50.1826 47.0661 50.162 51.4338 50.1409C52.4337 50.1134 53.2373 49.2796 53.2286 48.2646C53.2166 47.3219 52.3989 46.488 51.3996 46.5155Z" fill="#EB5757"/>
</svg>
