<svg width="118" height="170" viewBox="0 0 118 170" fill="none" xmlns="http://www.w3.org/2000/svg">
<path opacity="0.2" fill-rule="evenodd" clip-rule="evenodd" d="M1.53712 119.155C-0.403736 110.7 -0.43893 101.919 1.43409 93.4485C9.54773 54.6061 52.3955 33.5621 83.4076 42.7576C84.1674 42.9894 84.9144 43.2341 85.6485 43.4917C99.8667 48.553 111.136 60.1568 115.579 76.4356C120.885 95.8826 116.364 118.601 105.559 135.807C90.6068 159.607 68.6356 175.087 44.9902 167.669C27.153 162.08 6.44394 139.773 1.53712 119.155Z" fill="#02A5E8"/>
<path fill-rule="evenodd" clip-rule="evenodd" d="M17.6099 77.4658V2.57568H102.61V77.6204L107.156 81.3939C108.806 81.8289 110.265 82.7975 111.306 84.1487C112.347 85.4999 112.912 87.1577 112.913 88.8636V148.106C112.913 150.155 112.099 152.121 110.65 153.57C109.2 155.019 107.235 155.833 105.186 155.833H15.0341C12.9847 155.833 11.0192 155.019 9.57009 153.57C8.12095 152.121 7.30683 150.155 7.30683 148.106V88.8636C7.30522 87.2249 7.82461 85.6281 8.78997 84.3039C9.75532 82.9797 11.1167 81.9967 12.6773 81.4969L17.6099 77.4658V77.4658Z" stroke="#53585C" stroke-width="4"/>
<path d="M26.625 67.6136H80.6515M17.6098 2.57568H102.61V94.0151L60.1098 132.175L17.6098 94.0151V2.57568ZM17.6098 47.0075H102.61H17.6098ZM26.625 57.3105H93.5303H26.625Z" stroke="#53585C" stroke-width="4"/>
<path d="M74.2765 100.454H82.0038M29.2008 79.8484H38.2159V88.8635H29.2008V79.8484ZM44.6553 79.8484H93.5303H44.6553ZM44.6553 90.1514H58.822H44.6553ZM62.6856 90.1514H93.5303H62.6856ZM44.6553 100.454H70.4129H44.6553ZM49.8068 110.757H71.7008H49.8068Z" stroke="#53585C" stroke-width="4"/>
<path d="M18.0477 93.8735L59.9682 132.175L102.198 93.8735" stroke="#53585C" stroke-width="4" stroke-linecap="round"/>
<path d="M18.0477 140.044L43.2902 116.978L59.9682 132.175L76.9167 117.107L102.198 140.044" stroke="#53585C" stroke-width="4" stroke-linecap="round"/>
<path d="M17.6098 29.4537L36.2841 12.5825L52.6917 28.784L60.1614 21.2242L76.3758 37.1295H102.61" stroke="#53585C" stroke-width="4"/>
<path d="M70.4129 30.909C76.1031 30.909 80.7159 26.2962 80.7159 20.606C80.7159 14.9158 76.1031 10.303 70.4129 10.303C64.7227 10.303 60.1098 14.9158 60.1098 20.606C60.1098 26.2962 64.7227 30.909 70.4129 30.909Z" stroke="#53585C" stroke-width="4"/>
</svg>
