<svg width="80" height="72" viewBox="0 0 80 72" fill="none" xmlns="http://www.w3.org/2000/svg">
<g clip-path="url(#clip0_6_257)">
<path d="M55.1421 71.6105H10.8518C4.85845 71.6105 0 66.7518 0 60.7587C0 54.7644 4.85783 49.9041 10.8518 49.901L35.9482 49.8886C37.9765 49.8875 39.9692 50.4209 41.7257 51.4353C43.4821 52.4496 44.9402 53.9089 45.9531 55.6662L55.1424 71.6105H55.1421Z" fill="#9B51E0"/>
<path d="M8.22134 43.7844L30.3666 5.42762C33.3633 0.237409 40 -1.54087 45.1905 1.45582C50.3817 4.45282 52.1618 11.0899 49.1676 16.2825L36.63 38.0228C35.6167 39.7799 34.1583 41.2388 32.4016 42.2528C30.645 43.2667 28.6521 43.7998 26.6239 43.7983L8.22134 43.7844Z" fill="#EB5757"/>
<path d="M55.8478 17.0627L77.9931 55.4195C80.9901 60.61 79.2115 67.2467 74.021 70.2437C68.8301 73.2407 62.1919 71.4637 59.1927 66.2744L46.633 44.5466C45.6181 42.7905 45.0838 40.7979 45.0841 38.7696C45.0844 36.7413 45.6192 34.7489 46.6346 32.9931L55.8478 17.0631V17.0627Z" fill="#F2C94C"/>
</g>
<defs>
<clipPath id="clip0_6_257">
<rect width="79.4483" height="72" fill="white"/>
</clipPath>
</defs>
</svg>
